<?xml version="1.0" encoding="utf-8"?>
<svg id="master-artboard" viewBox="0 0 130.04551696777344 315.29754638671875" version="1.1" xmlns="http://www.w3.org/2000/svg" x="0px" y="0px" style="enable-background:new 0 0 1096 780;" width="130.04551696777344px" height="315.29754638671875px"><rect id="ee-background" x="0" y="0" width="130.04551696777344" height="315.29754638671875" style="fill: white; fill-opacity: 0; pointer-events: none;"/><defs><radialGradient id="gradient-0" gradientUnits="objectBoundingBox" cx="0.5" cy="0.5" r="0.5">
                <stop offset="0" style="stop-color: #f33545"/>
                <stop offset="1" style="stop-color: #b70b19"/>
              </radialGradient><radialGradient id="gradient-1" gradientUnits="objectBoundingBox" cx="0.5" cy="0.5" r="0.5">
                <stop offset="0" style="stop-color: #f33545"/>
                <stop offset="1" style="stop-color: #b70b19"/>
              </radialGradient><radialGradient id="gradient-2" gradientUnits="objectBoundingBox" cx="0.5" cy="0.5" r="0.5">
                <stop offset="0" style="stop-color: #f33545"/>
                <stop offset="1" style="stop-color: #b70b19"/>
              </radialGradient><radialGradient id="gradient-3" gradientUnits="objectBoundingBox" cx="0.5" cy="0.5" r="0.5">
                <stop offset="0" style="stop-color: #f33545"/>
                <stop offset="1" style="stop-color: #b70b19"/>
              </radialGradient><radialGradient id="gradient-4" gradientUnits="objectBoundingBox" cx="0.5" cy="0.5" r="0.5">
                <stop offset="0" style="stop-color: #f33545"/>
                <stop offset="1" style="stop-color: #b70b19"/>
              </radialGradient><radialGradient id="gradient-5" gradientUnits="objectBoundingBox" cx="0.5" cy="0.5" r="0.5">
                <stop offset="0" style="stop-color: #f33545"/>
                <stop offset="1" style="stop-color: #b70b19"/>
              </radialGradient><radialGradient id="gradient-6" gradientUnits="objectBoundingBox" cx="0.5" cy="0.5" r="0.5">
                <stop offset="0" style="stop-color: #f33545"/>
                <stop offset="1" style="stop-color: #b70b19"/>
              </radialGradient><radialGradient id="gradient-7" gradientUnits="objectBoundingBox" cx="0.5" cy="0.5" r="0.5">
                <stop offset="0" style="stop-color: #f33545"/>
                <stop offset="1" style="stop-color: #b70b19"/>
              </radialGradient><radialGradient id="gradient-8" gradientUnits="objectBoundingBox" cx="0.5" cy="0.5" r="0.5">
                <stop offset="0" style="stop-color: #f33545"/>
                <stop offset="1" style="stop-color: #b70b19"/>
              </radialGradient><radialGradient id="gradient-9" gradientUnits="objectBoundingBox" cx="0.5" cy="0.5" r="0.5">
                <stop offset="0" style="stop-color: #f33545"/>
                <stop offset="1" style="stop-color: #b70b19"/>
              </radialGradient><radialGradient id="gradient-10" gradientUnits="objectBoundingBox" cx="0.5" cy="0.5" r="0.5">
                <stop offset="0" style="stop-color: #f33545"/>
                <stop offset="1" style="stop-color: #b70b19"/>
              </radialGradient><radialGradient id="gradient-11" gradientUnits="objectBoundingBox" cx="0.5" cy="0.5" r="0.5">
                <stop offset="0" style="stop-color: #f33545"/>
                <stop offset="1" style="stop-color: #b70b19"/>
              </radialGradient><radialGradient id="gradient-12" gradientUnits="objectBoundingBox" cx="0.5" cy="0.5" r="0.5">
                <stop offset="0" style="stop-color: #f33545"/>
                <stop offset="1" style="stop-color: #b70b19"/>
              </radialGradient><radialGradient id="gradient-13" gradientUnits="objectBoundingBox" cx="0.5" cy="0.5" r="0.5">
                <stop offset="0" style="stop-color: #f33545"/>
                <stop offset="1" style="stop-color: #b70b19"/>
              </radialGradient><radialGradient id="gradient-14" gradientUnits="objectBoundingBox" cx="0.5" cy="0.5" r="0.5">
                <stop offset="0" style="stop-color: #f33545"/>
                <stop offset="1" style="stop-color: #b70b19"/>
              </radialGradient><radialGradient id="gradient-15" gradientUnits="objectBoundingBox" cx="0.5" cy="0.5" r="0.5">
                <stop offset="0" style="stop-color: #f33545"/>
                <stop offset="1" style="stop-color: #b70b19"/>
              </radialGradient></defs>

<g transform="matrix(-1, 0, 0, 1, 782.22802734375, -61.35115051269531)">
	<path class="st6" d="M772.8,103.5H662.1c-1.1,0-2,0.9-2,2v36.8c0,1.1,0.9,2,2,2h110.7c1.1,0,2-0.9,2-2v-36.8&#10;&#9;&#9;C774.7,104.4,773.9,103.5,772.8,103.5z" style="fill: url('#gradient-0'); stroke: rgb(0, 0, 0); stroke-width: 3; paint-order: stroke; fill-opacity: 1;"/>
	<path class="st4" d="M678,70.3h78.7c7.6,0,13.8,6.4,13.5,14l-3.1,79.2h-99.4l-3.1-79.2C664.2,76.7,670.3,70.3,678,70.3z" style="fill: url('#gradient-1'); stroke: rgb(0, 0, 0); stroke-width: 3; paint-order: stroke; fill-opacity: 1;"/>
	<path class="st2" d="M680.2,83.7c0-0.2,0.1-0.4,0.2-0.5c1.1-0.8,7.1-3.5,37-3.5c29.8,0,35.6,2.7,36.6,3.5c0.2,0.1,0.2,0.3,0.2,0.5&#10;&#9;&#9;l-1.6,14.6c0,0.3-0.3,0.5-0.6,0.5c-2.6-0.3-14.5-1.7-34.8-1.4c-20.3,0.4-32.3,1.2-34.8,1.4c-0.3,0-0.5-0.2-0.6-0.5L680.2,83.7z" style="fill: url('#gradient-2'); stroke: rgb(0, 0, 0); stroke-width: 3; paint-order: stroke; fill-opacity: 1;"/>
	<path d="M 760 107.0999984741211 L 754.2000122070312 115.0999984741211 L 754.2000122070312 145.39999389648438 L 760 149.3000030517578 Z" class="st6" style="fill: url('#gradient-3'); stroke: rgb(0, 0, 0); stroke-width: 3; paint-order: stroke; fill-opacity: 1;"/>
	<path d="M 674.2999877929688 107.0999984741211 L 680.0999755859375 115.0999984741211 L 680.0999755859375 145.39999389648438 L 674.2999877929688 149.3000030517578 Z" class="st6" style="fill: url('#gradient-4'); stroke: rgb(0, 0, 0); stroke-width: 3; paint-order: stroke; fill-opacity: 1;"/>
	<path d="M 741.599976 148.5 L 741.599976 108.599998" class="st12" style="fill: url('#gradient-5'); stroke: rgb(0, 0, 0); stroke-width: 3; stroke-linecap: round; stroke-miterlimit: 10; paint-order: stroke; fill-opacity: 1;"/>
	<path d="M 694.200012 148.5 L 694.200012 108.599998" class="st12" style="fill: url('#gradient-6'); stroke: rgb(0, 0, 0); stroke-width: 3; stroke-linecap: round; stroke-miterlimit: 10; paint-order: stroke; fill-opacity: 1;"/>
	<path d="M 767.0999755859375 163.5 L 754.2000122070312 155.39999389648438 L 680.2000122070312 155.39999389648438 L 667.5999755859375 163.5 Z" class="st2" style="fill: url('#gradient-7'); stroke: rgb(0, 0, 0); stroke-width: 3; paint-order: stroke; fill-opacity: 1;"/>
	<path class="st2" d="M757.1,103.5c0,0,12.5,8.6,14.1,6.5s-11.2-9.6-11.2-9.6S757.6,100,757.1,103.5z" style="fill: url('#gradient-8'); stroke: rgb(0, 0, 0); stroke-width: 3; paint-order: stroke; fill-opacity: 1;"/>
	<path class="st2" d="M677.2,103.5c0,0-12.5,8.6-14.1,6.5s11.2-9.6,11.2-9.6S676.8,100,677.2,103.5z" style="fill: url('#gradient-9'); stroke: rgb(0, 0, 0); stroke-width: 3; paint-order: stroke; fill-opacity: 1;"/>
	<path class="st2" d="M678,73.5h78.7c7.1,0,12.8,5.4,13.4,12.3l0.1-1.4c0.3-7.6-5.8-14-13.5-14H678c-7.6,0-13.8,6.4-13.5,14l0.1,1.4&#10;&#9;&#9;C665.2,78.9,670.9,73.5,678,73.5z" style="fill: url('#gradient-10'); stroke: rgb(0, 0, 0); stroke-width: 3; paint-order: stroke; fill-opacity: 1;"/>
	<path class="st1" d="M754.5,75h-10.3c-1.5,0-2.7-1.2-2.7-2.7v-2h15.7v2C757.3,73.8,756.1,75,754.5,75z" style="fill: url('#gradient-11'); stroke: rgb(0, 0, 0); stroke-width: 3; paint-order: stroke; fill-opacity: 1;"/>
	<path class="st1" d="M690.2,75h-10.3c-1.5,0-2.7-1.2-2.7-2.7v-2h15.7v2C692.9,73.8,691.7,75,690.2,75z" style="fill: url('#gradient-12'); stroke: rgb(0, 0, 0); stroke-width: 3; paint-order: stroke; fill-opacity: 1;"/>
	<path d="M 660.200012 163.5 H 774.800011 V 363.600006 H 660.200012 V 163.5 Z" class="st1" style="fill: url('#gradient-13'); stroke: rgb(0, 0, 0); stroke-width: 3; paint-order: stroke; fill-opacity: 1;"/>
	<path d="M 676.200012 175 H 758.600014 V 352 H 676.200012 V 175 Z" class="st4" style="fill: url('#gradient-14'); stroke: rgb(0, 0, 0); stroke-width: 3; paint-order: stroke; fill-opacity: 1;"/>
	<path d="M 698.5999755859375 366.3999938964844 L 740.5 366.3999938964844 L 757.4000244140625 363.5 L 681.7000122070312 363.5 Z" class="st6" style="fill: url('#gradient-15'); stroke: rgb(0, 0, 0); stroke-width: 3; paint-order: stroke; fill-opacity: 1;"/>
</g>






</svg>
